HIERARCHY
ROOT Hips
{
	OFFSET 0.00 0.00 0.00
	CHANNELS 6 Xposition Yposition Zposition Xrotation Yrotation Zrotation
	JOINT Spine
	{
		OFFSET 0.00000 7.50895 0.00000
		CHANNELS 3 Xrotation Yrotation Zrotation
		JOINT Head
		{
			OFFSET 0.00000 13.86115 0.00000
			CHANNELS 3 Xrotation Yrotation Zrotation
			End Site
			{
				OFFSET 0.00000 4.52755 0.00000
			}
		}
		JOINT LeftShoulder
		{
			OFFSET 0.00000 8.20478 0.00000
			CHANNELS 3 Xrotation Yrotation Zrotation
			JOINT LeftArm
			{
				OFFSET 6.63596 0.00000 0.00000
				CHANNELS 3 Xrotation Yrotation Zrotation
				JOINT LeftForeArm
				{
					OFFSET 10.27422 0.00000 0.00000
					CHANNELS 3 Yrotation Zrotation Xrotation
					JOINT LeftHand
					{
						OFFSET 8.52215 0.00000 0.00000
						CHANNELS 3 Xrotation Yrotation Zrotation
						JOINT LeftHandThumb1
						{
							OFFSET 0.00000 0.00000 0.00000
							CHANNELS 3 Xrotation Zrotation Yrotation
							End Site
							{
								OFFSET 0.00000 0.00000 3.93700
							}
						}
						End Site
						{
							OFFSET 3.93700 0.00000 0.00000
						}
					}
				}
			}
		}
		JOINT RightShoulder
		{
			OFFSET 0.00000 8.20478 0.00000
			CHANNELS 3 Xrotation Yrotation Zrotation
			JOINT RightArm
			{
				OFFSET -6.63596 0.00000 0.00000
				CHANNELS 3 Xrotation Yrotation Zrotation
				JOINT RightForeArm
				{
					OFFSET -10.27422 0.00000 0.00000
					CHANNELS 3 Yrotation Zrotation Xrotation
					JOINT RightHand
					{
						OFFSET -8.52215 0.00000 0.00000
						CHANNELS 3 Xrotation Yrotation Zrotation
						JOINT RightHandThumb1
						{
							OFFSET 0.00000 0.00000 0.00000
							CHANNELS 3 Xrotation Zrotation Yrotation
							End Site
							{
								OFFSET 0.00000 0.00000 3.93700
							}
						}
						End Site
						{
							OFFSET -3.93700 0.00000 0.00000
						}
					}
				}
			}
		}
	}
	JOINT LeftUpLeg
	{
		OFFSET 3.00056 0.00000 0.00000
		CHANNELS 3 Xrotation Yrotation Zrotation
		JOINT LeftLeg
		{
			OFFSET 0.00000 -16.49085 0.00000
			CHANNELS 3 Xrotation Yrotation Zrotation
			JOINT LeftFoot
			{
				OFFSET 0.00000 -14.55658 0.00000
				CHANNELS 3 Xrotation Yrotation Zrotation
				JOINT LeftToeBase
				{
					OFFSET 0.00000 -1.25038 4.66650
					CHANNELS 3 Xrotation Yrotation Zrotation
					End Site
					{
						OFFSET 0.00000 0.00000 2.95275
					}
				}
			}
		}
	}
	JOINT RightUpLeg
	{
		OFFSET -3.00056 0.00000 0.00000
		CHANNELS 3 Xrotation Yrotation Zrotation
		JOINT RightLeg
		{
			OFFSET 0.00000 -16.49085 0.00000
			CHANNELS 3 Xrotation Yrotation Zrotation
			JOINT RightFoot
			{
				OFFSET 0.00000 -14.55658 0.00000
				CHANNELS 3 Xrotation Yrotation Zrotation
				JOINT RightToeBase
				{
					OFFSET 0.00000 -1.25038 4.66650
					CHANNELS 3 Xrotation Yrotation Zrotation
					End Site
					{
						OFFSET 0.00000 0.00000 2.95275
					}
				}
			}
		}
	}
}
MOTION
Frames: 23
Frame Time: 0.008333
 -3.4324 32.6832 -4.0316 12.6537 3.1264 -2.6303 -14.3237 4.1628 3.2096 -6.8003 -9.0640 7.7383 12.2939 20.6865 26.6580 -29.0744 -6.2873 -29.8241 -14.0686 -0.0000 10.0247 1.5784 26.8718 -3.4886 33.1476 -0.0000 26.2537 -20.6318 -7.3143 -38.0692 2.2954 -13.5632 36.7414 17.3905 -0.0000 29.2831 1.5476 -10.6192 8.3406 32.8623 0.0000 -24.3270 -5.7658 7.4332 3.0616 -1.8355 0.0000 -0.0000 -11.3400 17.6697 -9.0325 7.3028 -0.0000 0.0000 -8.1391 -6.4341 0.5252 2.4015 0.0000 0.0000 -10.9731 -3.5947 -7.4324 -0.0221 0.0000 0.0000
 -3.4370 32.6840 -4.0345 12.6693 3.1225 -2.6590 -14.3392 4.1642 3.2371 -6.8251 -9.0575 7.7240 12.2770 20.6510 26.6674 -29.0248 -6.2889 -29.8016 -14.0317 -0.0000 9.9867 1.5485 26.8737 -3.4225 33.1476 -0.0000 26.2537 -20.6361 -7.3202 -38.0795 2.2703 -13.5926 36.7468 17.3908 -0.0000 29.3234 1.5477 -10.6126 8.3461 32.8623 0.0000 -24.3270 -5.7933 7.4214 3.1011 -1.8319 0.0000 0.0000 -11.3178 17.6968 -9.1137 7.1466 0.0000 0.0000 -8.0924 -6.2707 0.5637 2.2654 0.0000 0.0000 -10.8987 -3.7287 -7.3933 0.0034 -0.0000 -0.0000
 -3.4346 32.6832 -4.0362 12.6535 3.1238 -2.6360 -14.3111 4.1708 3.2102 -6.8548 -9.0528 7.7374 12.2918 20.6634 26.6646 -29.0285 -6.3012 -29.7859 -14.0334 -0.0000 9.9644 1.5538 26.9089 -3.4300 33.1476 -0.0000 26.2537 -20.6298 -7.3403 -38.0556 2.1006 -13.6856 36.7051 17.3719 -0.0000 29.4821 1.5493 -10.5691 8.3883 32.8623 0.0000 -24.3270 -5.7764 7.4087 3.0725 -1.8305 -0.0000 -0.0000 -11.3378 17.6997 -9.0324 7.2647 -0.0000 0.0000 -8.1434 -6.3993 0.5358 2.3945 -0.0000 -0.0000 -10.9692 -3.6337 -7.4404 0.0144 0.0000 0.0000
 -3.4343 32.6835 -4.0382 12.6521 3.1191 -2.6295 -14.3038 4.1732 3.2068 -6.8805 -9.0491 7.7184 12.2935 20.6632 26.6555 -29.0350 -6.2889 -29.7730 -14.0339 -0.0000 9.9945 1.5382 26.8707 -3.4002 33.1476 -0.0000 26.2537 -20.6364 -7.3413 -38.0416 2.1012 -13.6873 36.6915 17.3662 -0.0000 29.4958 1.5346 -10.5586 8.3181 32.8623 0.0000 -24.3270 -5.7810 7.4270 3.0641 -1.8237 -0.0000 0.0000 -11.3348 17.6912 -9.0318 7.2761 -0.0000 -0.0000 -8.1642 -6.4256 0.5280 2.4305 0.0000 -0.0000 -10.9770 -3.5958 -7.4532 0.0050 0.0000 -0.0000
 -3.4384 32.6844 -4.0419 12.6695 3.1229 -2.6554 -14.3196 4.1677 3.2265 -6.9007 -9.0584 7.7095 12.2912 20.6534 26.6636 -29.0408 -6.2743 -29.7642 -14.0265 -0.0000 10.0031 1.5342 26.8050 -3.3989 33.1476 -0.0000 26.2537 -20.6242 -7.3603 -38.0578 2.0764 -13.7065 36.7138 17.3694 -0.0000 29.5499 1.5348 -10.5306 8.3408 32.8623 0.0000 -24.3270 -5.8185 7.4269 3.1000 -1.8058 0.0000 0.0000 -11.3411 17.6748 -9.0600 7.2704 -0.0000 0.0000 -8.1268 -6.2972 0.5625 2.3069 0.0000 0.0000 -10.9039 -3.7122 -7.3935 0.0206 0.0000 -0.0000
 -3.4362 32.6837 -4.0433 12.6522 3.1229 -2.6382 -14.2927 4.1817 3.2138 -6.9265 -9.0623 7.6932 12.2974 20.6478 26.6594 -29.0532 -6.2791 -29.7550 -14.0181 -0.0000 9.9914 1.5239 26.8753 -3.3680 33.1476 -0.0000 26.2537 -20.6230 -7.3926 -38.0488 2.1217 -13.6305 36.7015 17.3574 -0.0000 29.4199 1.5437 -10.5838 8.3471 32.8623 0.0000 -24.3270 -5.7974 7.4190 3.0781 -1.8120 -0.0000 0.0000 -11.3254 17.6990 -9.0988 7.2580 -0.0000 -0.0000 -8.1624 -6.4027 0.5367 2.4119 0.0000 0.0000 -10.9610 -3.6185 -7.4122 -0.0280 -0.0000 -0.0000
 -3.4389 32.6848 -4.0467 12.6647 3.1208 -2.6548 -14.3029 4.1695 3.2297 -6.9357 -9.0624 7.6814 12.2780 20.6294 26.6460 -28.9836 -6.3057 -29.7115 -13.9914 -0.0000 9.9603 1.4797 26.8604 -3.2722 33.1476 -0.0000 26.2537 -20.6308 -7.3768 -38.0444 2.1573 -13.6217 36.7071 17.3531 -0.0000 29.3754 1.5396 -10.5879 8.3221 32.8623 0.0000 -24.3270 -5.8197 7.4031 3.0998 -1.8071 -0.0000 0.0000 -11.3327 17.6964 -9.0468 7.2667 0.0000 -0.0000 -8.1321 -6.2816 0.5616 2.3109 0.0000 -0.0000 -10.9011 -3.7275 -7.3789 -0.0046 -0.0000 -0.0000
 -3.4366 32.6840 -4.0479 12.6489 3.1223 -2.6330 -14.2783 4.1746 3.2087 -6.9596 -9.0661 7.6702 12.2615 20.6221 26.6578 -28.9785 -6.2985 -29.7089 -13.9930 -0.0000 9.9789 1.4909 26.8510 -3.2980 33.1476 -0.0000 26.2537 -20.6212 -7.3970 -38.0397 2.1134 -13.6298 36.7012 17.3425 -0.0000 29.3838 1.5450 -10.5712 8.3634 32.8623 0.0000 -24.3270 -5.7995 7.4066 3.0742 -1.8147 -0.0000 -0.0000 -11.3132 17.7007 -9.0890 7.2320 -0.0000 0.0000 -8.1745 -6.4144 0.5330 2.4246 0.0000 -0.0000 -10.9694 -3.6006 -7.4503 0.0131 -0.0000 -0.0000
 -3.4369 32.6836 -4.0498 12.6469 3.1285 -2.6323 -14.2738 4.1748 3.2025 -6.9666 -9.0675 7.6798 12.2768 20.6315 26.6662 -28.9939 -6.3153 -29.7077 -13.9800 -0.0000 9.9434 1.4355 26.9238 -3.1676 33.1476 -0.0000 26.2537 -20.6253 -7.3737 -38.0784 2.1447 -13.7101 36.7500 17.3664 -0.0000 29.5106 1.5921 -10.6368 8.5636 32.8623 0.0000 -24.3270 -5.8013 7.4039 3.0728 -1.8170 0.0000 -0.0000 -11.3367 17.6923 -9.0142 7.2614 0.0000 -0.0000 -8.1734 -6.4087 0.5310 2.4191 0.0000 -0.0000 -10.9704 -3.6069 -7.4444 0.0453 -0.0000 -0.0000
 -3.4405 32.6849 -4.0537 12.6603 3.1194 -2.6594 -14.2870 4.1771 3.2321 -6.9663 -9.0703 7.6741 12.2819 20.6314 26.6656 -28.9879 -6.3163 -29.6939 -13.9948 -0.0000 9.9796 1.5161 26.8294 -3.3561 33.1476 -0.0000 26.2537 -20.6340 -7.3648 -38.0682 2.1643 -13.7194 36.7385 17.3656 -0.0000 29.5232 1.5957 -10.6278 8.5897 32.8623 0.0000 -24.3270 -5.8339 7.4142 3.1091 -1.8009 -0.0000 -0.0000 -11.3358 17.6773 -9.0441 7.3077 0.0000 0.0000 -8.1434 -6.2885 0.5687 2.3157 -0.0000 0.0000 -10.8919 -3.7223 -7.3931 0.0205 0.0000 0.0000
 -3.4375 32.6839 -4.0551 12.6440 3.1276 -2.6338 -14.2637 4.1758 3.2080 -6.9669 -9.0703 7.6664 12.2558 20.6040 26.6691 -29.1266 -6.2284 -29.7053 -13.9547 -0.0000 10.2303 1.5385 26.7680 -3.4129 33.1476 -0.0000 26.2537 -20.6292 -7.3792 -38.0823 2.1599 -13.6973 36.7566 17.3412 -0.0000 29.5073 1.5931 -10.6103 8.5895 32.8623 0.0000 -24.3270 -5.8115 7.4029 3.0750 -1.8091 0.0000 0.0000 -11.3306 17.6955 -9.0376 7.2976 0.0000 0.0000 -8.1791 -6.3949 0.5337 2.4177 0.0000 0.0000 -10.9628 -3.6243 -7.4336 0.0176 -0.0000 -0.0000
 -3.4375 32.6841 -4.0562 12.6381 3.1234 -2.6308 -14.2614 4.1702 3.2097 -6.9553 -9.0564 7.6599 12.2659 20.6025 26.6638 -28.9001 -6.3714 -29.6363 -13.9142 -0.0000 9.9907 1.4911 26.7792 -3.3066 33.1476 -0.0000 26.2537 -20.6144 -7.3830 -38.0680 2.1432 -13.6926 36.7424 17.3392 -0.0000 29.5070 1.5988 -10.6149 8.6160 32.8623 0.0000 -24.3270 -5.8054 7.4115 3.0713 -1.8125 0.0000 -0.0000 -11.3291 17.7002 -9.0337 7.3032 0.0000 0.0000 -8.1952 -6.4298 0.5316 2.4573 -0.0000 0.0000 -10.9735 -3.5992 -7.4693 0.0189 0.0000 0.0000
 -3.4411 32.6855 -4.0597 12.6471 3.1230 -2.6639 -14.2760 4.1695 3.2367 -6.9301 -9.0674 7.6913 12.2731 20.6244 26.6774 -28.9939 -6.3110 -29.6569 -14.0123 -0.0000 10.1482 1.5604 26.7684 -3.4612 33.1476 -0.0000 26.2537 -20.6122 -7.3914 -38.0453 2.1381 -13.6933 36.7201 17.3299 -0.0000 29.4945 1.6030 -10.6326 8.6241 32.8623 0.0000 -24.3270 -5.8325 7.4175 3.1135 -1.8013 0.0000 0.0000 -11.3260 17.6860 -9.0522 7.2892 -0.0000 0.0000 -8.1414 -6.2741 0.5733 2.3174 0.0000 0.0000 -10.8879 -3.7291 -7.4039 0.0347 -0.0000 -0.0000
 -3.4411 32.6855 -4.0619 12.6453 3.1243 -2.6632 -14.2742 4.1636 3.2417 -6.9287 -9.0530 7.6772 12.2855 20.6198 26.6714 -29.0138 -6.2787 -29.6340 -14.0716 -0.0000 10.1084 1.6043 26.8646 -3.5466 33.1476 -0.0000 26.2537 -20.6166 -7.3824 -38.0493 2.1348 -13.7101 36.7212 17.3356 -0.0000 29.5071 1.6034 -10.6087 8.6455 32.8623 0.0000 -24.3270 -5.8353 7.4242 3.1126 -1.8026 0.0000 0.0000 -11.3290 17.6722 -9.0392 7.2863 -0.0000 0.0000 -8.1334 -6.2562 0.5723 2.2981 -0.0000 0.0000 -10.8741 -3.7426 -7.3948 0.0151 -0.0000 -0.0000
 -3.4378 32.6844 -4.0632 12.6328 3.1273 -2.6326 -14.2582 4.1577 3.2153 -6.9193 -9.0500 7.6732 12.2781 20.6330 26.6877 -29.0212 -6.2725 -29.6412 -14.0924 -0.0000 10.1414 1.6123 26.8799 -3.5623 33.1476 -0.0000 26.2537 -20.6178 -7.3912 -38.0523 2.1479 -13.6727 36.7259 17.3372 -0.0000 29.4776 1.6061 -10.6188 8.6519 32.8623 0.0000 -24.3270 -5.8109 7.4007 3.0709 -1.8142 -0.0000 0.0000 -11.2627 17.6111 -8.8469 6.9531 -0.0000 -0.0000 -8.1843 -6.3901 0.5329 2.4206 -0.0000 0.0000 -10.9550 -3.6216 -7.4605 0.0559 0.0000 0.0000
 -3.4376 32.6845 -4.0649 12.6302 3.1261 -2.6300 -14.2571 4.1576 3.2207 -6.9056 -9.0486 7.6645 12.2978 20.6427 26.6709 -29.0414 -6.2926 -29.6186 -14.0829 -0.0000 10.1427 1.6087 26.9136 -3.5504 33.1476 -0.0000 26.2537 -20.6117 -7.4029 -38.0522 2.1564 -13.6565 36.7192 17.3457 -0.0000 29.4607 1.6040 -10.5872 8.6657 32.8623 0.0000 -24.3270 -5.8092 7.4035 3.0711 -1.8208 0.0000 0.0000 -11.3137 17.6856 -9.0032 7.2564 0.0000 -0.0000 -8.2032 -6.4125 0.5288 2.4577 0.0000 0.0000 -10.9708 -3.6160 -7.4535 0.0526 0.0000 0.0000
 -3.4410 32.6859 -4.0685 12.6460 3.1251 -2.6571 -14.2788 4.1506 3.2513 -6.8918 -9.0400 7.6696 12.2796 20.6222 26.6798 -29.1640 -6.2059 -29.6384 -14.1055 -0.0000 10.2760 1.6422 27.1047 -3.6006 33.1476 -0.0000 26.2537 -20.6250 -7.3992 -38.0521 2.1492 -13.6676 36.7111 17.3482 -0.0000 29.4831 1.6021 -10.5791 8.6619 32.8623 0.0000 -24.3270 -5.8451 7.4176 3.1064 -1.8029 -0.0000 -0.0000 -11.3180 17.6814 -9.0500 7.2685 -0.0000 0.0000 -8.1698 -6.2755 0.5620 2.3463 0.0000 -0.0000 -10.8996 -3.7235 -7.3971 0.0527 0.0000 0.0000
 -3.4430 32.6853 -4.0698 12.6292 3.1329 -2.6720 -14.2578 4.1373 3.2731 -6.8897 -9.0332 7.6621 12.2849 20.6310 26.6740 -29.0408 -6.2882 -29.5937 -14.1230 -0.0000 10.0881 1.6175 27.0662 -3.5512 33.1476 -0.0000 26.2537 -20.6226 -7.4023 -38.0502 2.1250 -13.6773 36.6983 17.3462 -0.0000 29.5087 1.6028 -10.5690 8.6739 32.8623 0.0000 -24.3270 -5.8325 7.4040 3.1252 -1.8052 0.0000 0.0000 -11.3186 17.6727 -9.0511 7.2538 -0.0000 0.0000 -8.1420 -6.2814 0.5809 2.3230 -0.0000 0.0000 -10.8739 -3.7274 -7.3940 0.0079 -0.0000 -0.0000
 -3.4432 32.6854 -4.0721 12.6271 3.1374 -2.6726 -14.2557 4.1174 3.2813 -6.8709 -9.0211 7.6676 12.3026 20.6497 26.6737 -29.0386 -6.2933 -29.5881 -14.1311 -0.0000 10.0769 1.6053 27.0076 -3.5316 33.1476 -0.0000 26.2537 -20.6211 -7.3925 -38.0518 2.1130 -13.6864 36.6992 17.3555 -0.0000 29.5241 1.5970 -10.5561 8.6532 32.8623 0.0000 -24.3270 -5.8397 7.4128 3.1270 -1.7970 -0.0000 -0.0000 -11.3141 17.6628 -9.0683 7.2533 0.0000 -0.0000 -8.1424 -6.2649 0.5828 2.3224 -0.0000 0.0000 -10.8801 -3.7467 -7.4026 0.0566 0.0000 0.0000
 -3.4396 32.6843 -4.0729 12.6083 3.1441 -2.6424 -14.2310 4.1148 3.2573 -6.8684 -9.0197 7.6626 12.3025 20.6586 26.6754 -29.0710 -6.2999 -29.5815 -14.1154 -0.0000 10.0658 1.5977 26.9614 -3.5205 33.1476 -0.0000 26.2537 -20.6232 -7.3945 -38.0424 2.1018 -13.6911 36.6789 17.3674 -0.0000 29.5285 1.6045 -10.5803 8.6738 32.8623 0.0000 -24.3270 -5.8085 7.3997 3.0881 -1.8162 0.0000 0.0000 -11.3086 17.6791 -9.0408 7.2887 0.0000 -0.0000 -8.1861 -6.4033 0.5436 2.4467 -0.0000 0.0000 -10.9609 -3.6281 -7.4547 0.0672 0.0000 -0.0000
 -3.4429 32.6854 -4.0761 12.6169 3.1306 -2.6694 -14.2450 4.1075 3.2928 -6.8462 -9.0076 7.6738 12.2900 20.6544 26.6690 -29.0509 -6.3072 -29.5542 -14.1265 -0.0000 10.0652 1.5981 26.9421 -3.5235 33.1476 -0.0000 26.2537 -20.6276 -7.3811 -38.0284 2.1234 -13.6752 36.6630 17.3635 -0.0000 29.5044 1.5999 -10.5940 8.6383 32.8623 0.0000 -24.3270 -5.8317 7.4252 3.1239 -1.8089 -0.0000 0.0000 -11.3064 17.6608 -9.0671 7.2536 0.0000 -0.0000 -8.1592 -6.2690 0.5815 2.3601 -0.0000 0.0000 -10.8934 -3.7425 -7.4458 0.0607 -0.0000 -0.0000
 -3.4435 32.6852 -4.0789 12.6168 3.1386 -2.6714 -14.2399 4.0935 3.3046 -6.8430 -8.9984 7.6654 12.2826 20.6328 26.6483 -29.0646 -6.3667 -29.5227 -13.9832 -0.0000 10.0996 1.5170 26.8545 -3.3551 33.1476 -0.0000 26.2537 -20.6382 -7.3776 -38.0450 2.1290 -13.6757 36.6730 17.3770 -0.0000 29.5269 1.6027 -10.5816 8.6634 32.8623 0.0000 -24.3270 -5.8382 7.4115 3.1276 -1.8077 -0.0000 -0.0000 -11.3032 17.6651 -9.0674 7.2854 0.0000 -0.0000 -8.1565 -6.2568 0.5817 2.3480 -0.0000 0.0000 -10.8891 -3.7522 -7.4491 0.0497 0.0000 -0.0000
 -3.4434 32.6856 -4.0805 12.6068 3.1414 -2.6732 -14.2305 4.0933 3.3062 -6.8213 -9.0274 7.7007 12.3017 20.6541 26.6531 -29.0727 -6.3581 -29.5066 -14.0853 -0.0000 10.0750 1.5825 26.8573 -3.4995 33.1476 -0.0000 26.2537 -20.6407 -7.3935 -38.0180 2.1309 -13.6500 36.6436 17.3744 -0.0000 29.5118 1.6032 -10.5842 8.6638 32.8623 0.0000 -24.3270 -5.8341 7.4354 3.1302 -1.8079 0.0000 0.0000 -11.3029 17.6388 -9.0632 7.2811 0.0000 0.0000 -8.1529 -6.2639 0.5842 2.3556 -0.0000 0.0000 -10.8864 -3.7594 -7.4199 0.0272 -0.0000 -0.0000
